<?xml version="1.0" encoding="UTF-8" standalone="no"?>
<svg
   xmlns:dc="http://purl.org/dc/elements/1.1/"
   xmlns:cc="http://creativecommons.org/ns#"
   xmlns:rdf="http://www.w3.org/1999/02/22-rdf-syntax-ns#"
   xmlns:svg="http://www.w3.org/2000/svg"
   xmlns="http://www.w3.org/2000/svg"
   xmlns:xlink="http://www.w3.org/1999/xlink"
   xmlns:sodipodi="http://sodipodi.sourceforge.net/DTD/sodipodi-0.dtd"
   xmlns:inkscape="http://www.inkscape.org/namespaces/inkscape"
   viewBox="0 0 26.458333 6.6145835"
   height="25"
   width="100"
   version="1.1"
   id="svg14"
   sodipodi:docname="radioslider_light.svg"
   inkscape:version="1.0beta1 (347022e4f4, 2019-10-27)">
  <metadata
     id="metadata20">
    <rdf:RDF>
      <cc:Work
         rdf:about="">
        <dc:format>image/svg+xml</dc:format>
        <dc:type
           rdf:resource="http://purl.org/dc/dcmitype/StillImage" />
        <dc:title />
      </cc:Work>
    </rdf:RDF>
  </metadata>
  <defs
     id="defs18">
    <linearGradient
       id="linearGradient856"
       inkscape:collect="always">
      <stop
         id="stop852"
         offset="0"
         style="stop-color:#3055ed;stop-opacity:1" />
      <stop
         id="stop854"
         offset="1"
         style="stop-color:#cb31d7;stop-opacity:1" />
    </linearGradient>
    <linearGradient
       gradientUnits="userSpaceOnUse"
       y2="3.30755"
       x2="26.458849"
       y1="3.30755"
       x1="0"
       id="linearGradient858"
       xlink:href="#linearGradient856"
       inkscape:collect="always" />
  </defs>
  <sodipodi:namedview
     pagecolor="#ffffff"
     bordercolor="#666666"
     inkscape:document-rotation="0"
     borderopacity="1"
     objecttolerance="10"
     gridtolerance="10"
     guidetolerance="10"
     inkscape:pageopacity="0"
     inkscape:pageshadow="2"
     inkscape:window-width="2490"
     inkscape:window-height="1023"
     id="namedview16"
     showgrid="false"
     inkscape:zoom="11.313708"
     inkscape:cx="28.843993"
     inkscape:cy="7.3396628"
     inkscape:window-x="70"
     inkscape:window-y="27"
     inkscape:window-maximized="1"
     inkscape:current-layer="svg14" />
  <path
     sodipodi:nodetypes="cccccccssccsccsccccsssssccscccccccsc"
     inkscape:connector-curvature="0"
     id="path850"
     style="color:#000000;font-style:normal;font-variant:normal;font-weight:normal;font-stretch:normal;font-size:medium;line-height:normal;font-family:sans-serif;font-variant-ligatures:normal;font-variant-position:normal;font-variant-caps:normal;font-variant-numeric:normal;font-variant-alternates:normal;font-variant-east-asian:normal;font-feature-settings:normal;font-variation-settings:normal;text-indent:0;text-align:start;text-decoration:none;text-decoration-line:none;text-decoration-style:solid;text-decoration-color:#000000;letter-spacing:normal;word-spacing:normal;text-transform:none;writing-mode:lr-tb;direction:ltr;text-orientation:mixed;dominant-baseline:auto;baseline-shift:baseline;text-anchor:start;white-space:normal;shape-padding:0;shape-margin:0;inline-size:0;clip-rule:nonzero;display:inline;overflow:visible;visibility:visible;opacity:1;isolation:auto;mix-blend-mode:normal;color-interpolation:sRGB;color-interpolation-filters:linearRGB;solid-color:#000000;solid-opacity:1;vector-effect:none;fill:url(#linearGradient858);fill-opacity:1;fill-rule:nonzero;stroke:none;stroke-width:0.79375;stroke-linecap:butt;stroke-linejoin:miter;stroke-miterlimit:4;stroke-dasharray:none;stroke-dashoffset:0;stroke-opacity:1;color-rendering:auto;image-rendering:auto;shape-rendering:auto;text-rendering:auto;enable-background:accumulate;stop-color:#000000;stop-opacity:1"
     d="M 3.3067749,0 C 1.4990097,0 0,1.4737808 0,3.3067749 0,5.1303425 1.4788946,6.6151 3.3067749,6.6151 H 23.150525 c 1.81596,0 3.308324,-1.477827 3.308324,-3.3083251 C 26.458849,1.4337353 24.921589,0 23.150525,0 Z m 0,0.7927165 c 1.3928915,-1e-7 2.5135416,1.1211667 2.5135416,2.5140584 0,1.3928915 -1.1206501,2.5135416 -2.5135416,2.5135416 -1.5905991,0 -2.51405843,-1.3222956 -2.51405843,-2.5135416 0,-1.3928422 1.12116683,-2.5140584 2.51405843,-2.5140584 z m 2.1058145,0 h 5.6745886 c -0.711609,0.607205 -1.1653031,1.5085421 -1.1653031,2.5140584 0,1.0047528 0.4530781,1.9058162 1.1637531,2.5135416 H 5.4131061 C 5.9757058,5.2875454 6.5491624,4.5317277 6.5491624,3.3012364 c 0,-1.1566584 -0.5576591,-1.988847 -1.136573,-2.5085199 z m 7.8160606,0 c 1.392891,-1e-7 2.513541,1.1211667 2.513541,2.5140584 0,1.3928918 -1.12065,2.5135416 -2.513541,2.5135416 -1.392892,-5e-7 -2.511992,-1.1206503 -2.511992,-2.5135416 0,-1.3928913 1.1191,-2.5140581 2.511992,-2.5140584 z m 2.105814,0 h 5.674589 c -0.711609,0.607205 -1.165303,1.5085419 -1.165303,2.5140584 0,1.0047531 0.453078,1.9058162 1.163753,2.5135416 h -5.672522 c 0.673044,-0.5920383 1.145703,-1.5262751 1.145703,-2.5135416 0,-1.0096815 -0.503677,-1.981764 -1.14622,-2.5140584 z m 7.816061,0 c 1.513255,0 2.513541,1.2367811 2.513541,2.5140584 0,1.5935356 -1.320923,2.5135416 -2.513541,2.5135416 -1.392892,0 -2.514059,-1.1206501 -2.514059,-2.5135416 0,-1.3928917 1.121167,-2.5140585 2.514059,-2.5140584 z" />
</svg>
